<svg class="svg-icon" style="width: 1em; height: 1em;vertical-align: middle;fill: #00BA7C;overflow: hidden;" viewBox="0 0 1024 1024" version="1.1" xmlns="http://www.w3.org/2000/svg">
  <path d="M537.826713 942.891727C288.624025 797.207717 120.959398 525.033851 120.959398 213.254965c0-21.924335 0.930185-43.618427 2.558265-65.192791L527.995811 49.545416 952.483688 152.948461c1.394766 19.946284 2.209318 40.068578 2.209318 60.307527C954.694029 525.033851 787.026332 797.207717 537.826713 942.891727zM834.017576 244.48627l-303.229163-75.779917L241.866095 240.937444c-1.163499 15.761985-1.802042 31.696909-1.802042 47.804772 0 228.615814 119.744221 428.209642 297.761638 534.984481 178.016393-106.775862 297.760614-306.369689 297.760614-534.984481C835.588351 273.854135 835.007113 259.081687 834.017576 244.48627z" stroke-width="2" />
</svg>
