<svg class="svg-icon" style="width: 1em; height: 1em;vertical-align: middle;fill: #00BA7C;overflow: hidden;" viewBox="0 0 1024 1024" version="1.1" xmlns="http://www.w3.org/2000/svg"><path d="M511.99693 90.864474c-232.57294 0-421.110967 188.538027-421.110967 421.110967s188.538027 421.110967 421.110967 421.110967 421.110967-188.538027 421.110967-421.110967S744.56987 90.864474 511.99693 90.864474zM511.99693 911.044392c-220.399689 0-399.068951-178.669262-399.068951-399.068951s178.669262-399.069975 399.068951-399.069975 399.069975 178.669262 399.069975 399.069975S732.396619 911.044392 511.99693 911.044392zM758.411109 354.706581c-10.025331-9.568936-26.28362-9.568936-36.305881 0l-272.315082 259.991406L297.495578 469.295386c-6.127558-5.849218-19.22076-2.829442-29.250184 6.742565-10.023284 9.572006-13.186324 22.073738-7.058766 27.92398l170.446997 162.733315c0.001023 0.001023 0.00307 0.00307 0.004093 0.004093 0.001023 0.001023 0.001023 0.001023 0.002047 0.002047l7.057743 6.737448c6.127558 5.849218 19.22076 2.829442 29.247114-6.739495l290.467511-277.323143C768.437463 379.801119 768.437463 364.278587 758.411109 354.706581z"  /></svg>